<svg width="46" height="35" viewBox="0 0 46 35" fill="none" xmlns="http://www.w3.org/2000/svg">
<rect x="0.0380859" width="45.678" height="35" rx="2.64865" fill="white"/>
<mask id="mask0" mask-type="alpha" maskUnits="userSpaceOnUse" x="0" y="0" width="46" height="35">
<rect x="0.0380859" width="45.678" height="35" rx="2.64865" fill="white"/>
</mask>
<g mask="url(#mask0)">
<path fill-rule="evenodd" clip-rule="evenodd" d="M0.0380859 9.33333H45.7161V0H0.0380859V9.33333Z" fill="#DD172C"/>
<path fill-rule="evenodd" clip-rule="evenodd" d="M0.0380859 34.9998H45.7161V25.6665H0.0380859V34.9998Z" fill="#DD172C"/>
<path fill-rule="evenodd" clip-rule="evenodd" d="M0.0380859 25.6663H45.7161V9.33301H0.0380859V25.6663Z" fill="#FFD133"/>
<path fill-rule="evenodd" clip-rule="evenodd" d="M12.0026 16.3331H14.1777V17.4998H12.0026V16.3331Z" fill="#FFEDB1"/>
<path d="M9.79661 16.0841C9.77668 15.8276 9.97944 15.6084 10.2367 15.6084H13.7663C14.0236 15.6084 14.2264 15.8276 14.2064 16.0841L13.8631 20.5038C13.8095 21.1933 13.2344 21.7256 12.5428 21.7256H11.4603C10.7687 21.7256 10.1935 21.1933 10.1399 20.5038L9.79661 16.0841Z" stroke="#A41517" stroke-width="0.882883"/>
<path fill-rule="evenodd" clip-rule="evenodd" d="M9.8252 17.5H14.1755V18.6667H13.0879L12.0003 21L10.9128 18.6667H9.8252V17.5Z" fill="#A41517"/>
<rect x="6.56287" y="13.9998" width="2.17514" height="8.16667" rx="0.882883" fill="#A41517"/>
<rect x="15.2649" y="13.9998" width="2.17514" height="8.16667" rx="0.882883" fill="#A41517"/>
<path d="M9.8252 13.4325C9.8252 12.4573 10.6158 11.6667 11.591 11.6667H12.4097C13.3849 11.6667 14.1755 12.4573 14.1755 13.4325V13.5586C14.1755 13.8024 13.9778 14.0001 13.734 14.0001H10.2666C10.0228 14.0001 9.8252 13.8024 9.8252 13.5586V13.4325Z" fill="#A41517"/>
</g>
</svg>
