<svg width="46" height="35" viewBox="0 0 46 35" fill="none" xmlns="http://www.w3.org/2000/svg">
<rect x="0.374624" y="0.336538" width="45.0049" height="34.3269" rx="2.35577" fill="white" stroke="#F5F5F5" stroke-width="0.673077"/>
<mask id="mask0" mask-type="alpha" maskUnits="userSpaceOnUse" x="0" y="0" width="46" height="35">
<rect x="0.374624" y="0.336538" width="45.0049" height="34.3269" rx="2.35577" fill="white" stroke="white" stroke-width="0.673077"/>
</mask>
<g mask="url(#mask0)">
<path fill-rule="evenodd" clip-rule="evenodd" d="M0.0380859 11.6667H45.7161V0H0.0380859V11.6667Z" fill="#38BB56"/>
<path fill-rule="evenodd" clip-rule="evenodd" d="M0.0380859 35.0002H45.7161V23.3335H0.0380859V35.0002Z" fill="#DE1B27"/>
<path fill-rule="evenodd" clip-rule="evenodd" d="M7.01126 9.33301C6.76344 9.33301 6.56254 9.53391 6.56254 9.78173V11.2176C6.56254 11.4654 6.76344 11.6663 7.01126 11.6663H8.28897C8.53679 11.6663 8.73768 11.4654 8.73768 11.2176V9.78173C8.73768 9.53391 8.53679 9.33301 8.28897 9.33301H7.01126ZM2.66088 9.33303C2.41306 9.33303 2.21216 9.53392 2.21216 9.78174V11.2176C2.21216 11.4655 2.41306 11.6664 2.66088 11.6664H3.93858C4.1864 11.6664 4.3873 11.4655 4.3873 11.2176V9.78174C4.3873 9.53392 4.1864 9.33303 3.93858 9.33303H2.66088ZM10.913 9.78173C10.913 9.53391 11.1139 9.33301 11.3617 9.33301H12.6394C12.8873 9.33301 13.0881 9.53391 13.0881 9.78173V11.2176C13.0881 11.4654 12.8873 11.6663 12.6394 11.6663H11.3617C11.1139 11.6663 10.913 11.4654 10.913 11.2176V9.78173ZM15.7122 9.33301C15.4644 9.33301 15.2635 9.53391 15.2635 9.78173V11.2176C15.2635 11.4654 15.4644 11.6663 15.7122 11.6663H16.9899C17.2377 11.6663 17.4386 11.4654 17.4386 11.2176V9.78173C17.4386 9.53391 17.2377 9.33301 16.9899 9.33301H15.7122ZM19.6139 9.78173C19.6139 9.53391 19.8148 9.33301 20.0627 9.33301H21.3404C21.5882 9.33301 21.7891 9.53391 21.7891 9.78173V11.2176C21.7891 11.4654 21.5882 11.6663 21.3404 11.6663H20.0627C19.8148 11.6663 19.6139 11.4654 19.6139 11.2176V9.78173ZM24.413 9.33301C24.1652 9.33301 23.9643 9.53391 23.9643 9.78173V11.2176C23.9643 11.4654 24.1652 11.6663 24.413 11.6663H25.6907C25.9385 11.6663 26.1394 11.4654 26.1394 11.2176V9.78173C26.1394 9.53391 25.9385 9.33301 25.6907 9.33301H24.413ZM28.3148 9.78173C28.3148 9.53391 28.5157 9.33301 28.7635 9.33301H30.0412C30.289 9.33301 30.4899 9.53391 30.4899 9.78173V11.2176C30.4899 11.4654 30.289 11.6663 30.0412 11.6663H28.7635C28.5157 11.6663 28.3148 11.4654 28.3148 11.2176V9.78173ZM33.1139 9.33301C32.8661 9.33301 32.6652 9.53391 32.6652 9.78173V11.2176C32.6652 11.4654 32.8661 11.6663 33.1139 11.6663H34.3916C34.6395 11.6663 34.8404 11.4654 34.8404 11.2176V9.78173C34.8404 9.53391 34.6395 9.33301 34.3916 9.33301H33.1139ZM37.0132 9.78173C37.0132 9.53391 37.2141 9.33301 37.4619 9.33301H38.7397C38.9875 9.33301 39.1884 9.53391 39.1884 9.78173V11.2176C39.1884 11.4654 38.9875 11.6663 38.7397 11.6663H37.4619C37.2141 11.6663 37.0132 11.4654 37.0132 11.2176V9.78173ZM41.8124 9.33301C41.5646 9.33301 41.3637 9.53391 41.3637 9.78173V11.2176C41.3637 11.4654 41.5646 11.6663 41.8124 11.6663H43.0901C43.3379 11.6663 43.5388 11.4654 43.5388 11.2176V9.78173C43.5388 9.53391 43.3379 9.33301 43.0901 9.33301H41.8124ZM2.21216 23.7816C2.21216 23.5338 2.41306 23.3329 2.66088 23.3329H3.93858C4.1864 23.3329 4.3873 23.5338 4.3873 23.7816V25.2175C4.3873 25.4653 4.1864 25.6662 3.93858 25.6662H2.66088C2.41306 25.6662 2.21216 25.4653 2.21216 25.2175V23.7816ZM7.01126 23.333C6.76344 23.333 6.56254 23.5339 6.56254 23.7817V25.2176C6.56254 25.4654 6.76344 25.6663 7.01126 25.6663H8.28897C8.53679 25.6663 8.73768 25.4654 8.73768 25.2176V23.7817C8.73768 23.5339 8.53679 23.333 8.28897 23.333H7.01126ZM10.913 23.7817C10.913 23.5339 11.1139 23.333 11.3617 23.333H12.6394C12.8873 23.333 13.0881 23.5339 13.0881 23.7817V25.2176C13.0881 25.4654 12.8873 25.6663 12.6394 25.6663H11.3617C11.1139 25.6663 10.913 25.4654 10.913 25.2176V23.7817ZM15.7122 23.333C15.4644 23.333 15.2635 23.5339 15.2635 23.7817V25.2176C15.2635 25.4654 15.4644 25.6663 15.7122 25.6663H16.9899C17.2377 25.6663 17.4386 25.4654 17.4386 25.2176V23.7817C17.4386 23.5339 17.2377 23.333 16.9899 23.333H15.7122ZM19.6139 23.7817C19.6139 23.5339 19.8148 23.333 20.0627 23.333H21.3404C21.5882 23.333 21.7891 23.5339 21.7891 23.7817V25.2176C21.7891 25.4654 21.5882 25.6663 21.3404 25.6663H20.0627C19.8148 25.6663 19.6139 25.4654 19.6139 25.2176V23.7817ZM24.413 23.333C24.1652 23.333 23.9643 23.5339 23.9643 23.7817V25.2176C23.9643 25.4654 24.1652 25.6663 24.413 25.6663H25.6907C25.9385 25.6663 26.1394 25.4654 26.1394 25.2176V23.7817C26.1394 23.5339 25.9385 23.333 25.6907 23.333H24.413ZM28.3148 23.7817C28.3148 23.5339 28.5157 23.333 28.7635 23.333H30.0412C30.289 23.333 30.4899 23.5339 30.4899 23.7817V25.2176C30.4899 25.4654 30.289 25.6663 30.0412 25.6663H28.7635C28.5157 25.6663 28.3148 25.4654 28.3148 25.2176V23.7817ZM33.1139 23.333C32.8661 23.333 32.6652 23.5339 32.6652 23.7817V25.2176C32.6652 25.4654 32.8661 25.6663 33.1139 25.6663H34.3916C34.6395 25.6663 34.8404 25.4654 34.8404 25.2176V23.7817C34.8404 23.5339 34.6395 23.333 34.3916 23.333H33.1139ZM37.0132 23.7817C37.0132 23.5339 37.2141 23.333 37.4619 23.333H38.7397C38.9875 23.333 39.1884 23.5339 39.1884 23.7817V25.2176C39.1884 25.4654 38.9875 25.6663 38.7397 25.6663H37.4619C37.2141 25.6663 37.0132 25.4654 37.0132 25.2176V23.7817ZM41.8124 23.333C41.5646 23.333 41.3637 23.5339 41.3637 23.7817V25.2176C41.3637 25.4654 41.5646 25.6663 41.8124 25.6663H43.0901C43.3379 25.6663 43.5388 25.4654 43.5388 25.2176V23.7817C43.5388 23.5339 43.3379 23.333 43.0901 23.333H41.8124Z" fill="white" fill-opacity="0.5"/>
<mask id="path-6-inside-1" fill="white">
<path fill-rule="evenodd" clip-rule="evenodd" d="M20.68 14.9121C20.025 15.5522 19.6139 16.4747 19.6139 17.5001C19.6139 19.4331 21.0747 21.0001 22.8766 21.0001C24.6786 21.0001 26.1393 19.4331 26.1393 17.5001C26.1393 16.494 25.7436 15.5871 25.11 14.9487"/>
</mask>
<path d="M20.0528 14.2703C19.2248 15.0794 18.7165 16.2333 18.7165 17.5001H20.5113C20.5113 16.7161 20.8251 16.0251 21.3072 15.5539L20.0528 14.2703ZM18.7165 17.5001C18.7165 19.8684 20.5207 21.8975 22.8766 21.8975V20.1027C21.6286 20.1027 20.5113 18.9978 20.5113 17.5001H18.7165ZM22.8766 21.8975C25.2325 21.8975 27.0368 19.8684 27.0368 17.5001H25.2419C25.2419 18.9978 24.1246 20.1027 22.8766 20.1027V21.8975ZM27.0368 17.5001C27.0368 16.2571 26.5474 15.123 25.747 14.3165L24.473 15.5808C24.9398 16.0512 25.2419 16.7309 25.2419 17.5001H27.0368Z" fill="#D80915" mask="url(#path-6-inside-1)"/>
<rect x="21.7903" y="16.3333" width="2.17514" height="4.66667" rx="0.897436" fill="#D80915"/>
</g>
</svg>
