<svg width="46" height="35" viewBox="0 0 46 35" fill="none" xmlns="http://www.w3.org/2000/svg">
<rect x="0.0380859" width="45.678" height="35" rx="2.69231" fill="white"/>
<mask id="mask0" mask-type="alpha" maskUnits="userSpaceOnUse" x="0" y="0" width="46" height="35">
<rect x="0.0380859" width="45.678" height="35" rx="2.69231" fill="white"/>
</mask>
<g mask="url(#mask0)">
<path fill-rule="evenodd" clip-rule="evenodd" d="M45.7161 0H0.0380859V2.33333H45.7161V0ZM45.7161 4.66684H0.0380859V7.00018H45.7161V4.66684ZM0.0380859 9.33303H45.7161V11.6664H0.0380859V9.33303ZM45.7161 13.9999H0.0380859V16.3332H45.7161V13.9999ZM0.0380859 18.6667H45.7161V21H0.0380859V18.6667ZM45.7161 23.3336H0.0380859V25.6669H45.7161V23.3336ZM0.0380859 27.9997H45.7161V30.3331H0.0380859V27.9997ZM45.7161 32.6666H0.0380859V34.9999H45.7161V32.6666Z" fill="#D02F44"/>
<rect x="0.0380859" width="19.5763" height="16.3333" fill="#46467F"/>
<g filter="url(#filter0_d)">
<path fill-rule="evenodd" clip-rule="evenodd" d="M4.38775 3.50016C4.38775 4.14449 3.90083 4.66683 3.30018 4.66683C2.69953 4.66683 2.21261 4.14449 2.21261 3.50016C2.21261 2.85583 2.69953 2.3335 3.30018 2.3335C3.90083 2.3335 4.38775 2.85583 4.38775 3.50016ZM8.73768 3.50016C8.73768 4.14449 8.25076 4.66683 7.65011 4.66683C7.04946 4.66683 6.56254 4.14449 6.56254 3.50016C6.56254 2.85583 7.04946 2.3335 7.65011 2.3335C8.25076 2.3335 8.73768 2.85583 8.73768 3.50016ZM12.0006 4.66683C12.6012 4.66683 13.0881 4.14449 13.0881 3.50016C13.0881 2.85583 12.6012 2.3335 12.0006 2.3335C11.3999 2.3335 10.913 2.85583 10.913 3.50016C10.913 4.14449 11.3999 4.66683 12.0006 4.66683ZM17.4386 3.50016C17.4386 4.14449 16.9517 4.66683 16.351 4.66683C15.7504 4.66683 15.2635 4.14449 15.2635 3.50016C15.2635 2.85583 15.7504 2.3335 16.351 2.3335C16.9517 2.3335 17.4386 2.85583 17.4386 3.50016ZM5.47371 7.00008C6.07436 7.00008 6.56128 6.47775 6.56128 5.83341C6.56128 5.18908 6.07436 4.66675 5.47371 4.66675C4.87306 4.66675 4.38614 5.18908 4.38614 5.83341C4.38614 6.47775 4.87306 7.00008 5.47371 7.00008ZM10.9117 5.83341C10.9117 6.47775 10.4248 7.00008 9.82417 7.00008C9.22353 7.00008 8.7366 6.47775 8.7366 5.83341C8.7366 5.18908 9.22353 4.66675 9.82417 4.66675C10.4248 4.66675 10.9117 5.18908 10.9117 5.83341ZM14.1746 7.00008C14.7753 7.00008 15.2622 6.47775 15.2622 5.83341C15.2622 5.18908 14.7753 4.66675 14.1746 4.66675C13.574 4.66675 13.0871 5.18908 13.0871 5.83341C13.0871 6.47775 13.574 7.00008 14.1746 7.00008ZM17.4386 8.16691C17.4386 8.81124 16.9517 9.33358 16.351 9.33358C15.7504 9.33358 15.2635 8.81124 15.2635 8.16691C15.2635 7.52258 15.7504 7.00024 16.351 7.00024C16.9517 7.00024 17.4386 7.52258 17.4386 8.16691ZM12.0006 9.33358C12.6012 9.33358 13.0881 8.81124 13.0881 8.16691C13.0881 7.52258 12.6012 7.00024 12.0006 7.00024C11.3999 7.00024 10.913 7.52258 10.913 8.16691C10.913 8.81124 11.3999 9.33358 12.0006 9.33358ZM8.73768 8.16691C8.73768 8.81124 8.25076 9.33358 7.65011 9.33358C7.04946 9.33358 6.56254 8.81124 6.56254 8.16691C6.56254 7.52258 7.04946 7.00024 7.65011 7.00024C8.25076 7.00024 8.73768 7.52258 8.73768 8.16691ZM3.29973 9.3336C3.90038 9.3336 4.3873 8.81126 4.3873 8.16693C4.3873 7.5226 3.90038 7.00026 3.29973 7.00026C2.69908 7.00026 2.21216 7.5226 2.21216 8.16693C2.21216 8.81126 2.69908 9.3336 3.29973 9.3336ZM6.56128 10.5004C6.56128 11.1447 6.07436 11.6671 5.47371 11.6671C4.87306 11.6671 4.38614 11.1447 4.38614 10.5004C4.38614 9.85607 4.87306 9.33374 5.47371 9.33374C6.07436 9.33374 6.56128 9.85607 6.56128 10.5004ZM9.82417 11.6671C10.4248 11.6671 10.9117 11.1447 10.9117 10.5004C10.9117 9.85607 10.4248 9.33374 9.82417 9.33374C9.22353 9.33374 8.7366 9.85607 8.7366 10.5004C8.7366 11.1447 9.22353 11.6671 9.82417 11.6671ZM15.2622 10.5004C15.2622 11.1447 14.7753 11.6671 14.1746 11.6671C13.574 11.6671 13.0871 11.1447 13.0871 10.5004C13.0871 9.85607 13.574 9.33374 14.1746 9.33374C14.7753 9.33374 15.2622 9.85607 15.2622 10.5004ZM16.351 13.9998C16.9517 13.9998 17.4386 13.4775 17.4386 12.8332C17.4386 12.1888 16.9517 11.6665 16.351 11.6665C15.7504 11.6665 15.2635 12.1888 15.2635 12.8332C15.2635 13.4775 15.7504 13.9998 16.351 13.9998ZM13.0881 12.8332C13.0881 13.4775 12.6012 13.9998 12.0006 13.9998C11.3999 13.9998 10.913 13.4775 10.913 12.8332C10.913 12.1888 11.3999 11.6665 12.0006 11.6665C12.6012 11.6665 13.0881 12.1888 13.0881 12.8332ZM7.65011 13.9998C8.25076 13.9998 8.73768 13.4775 8.73768 12.8332C8.73768 12.1888 8.25076 11.6665 7.65011 11.6665C7.04946 11.6665 6.56254 12.1888 6.56254 12.8332C6.56254 13.4775 7.04946 13.9998 7.65011 13.9998ZM4.3873 12.8331C4.3873 13.4774 3.90038 13.9998 3.29973 13.9998C2.69908 13.9998 2.21216 13.4774 2.21216 12.8331C2.21216 12.1888 2.69908 11.6664 3.29973 11.6664C3.90038 11.6664 4.3873 12.1888 4.3873 12.8331Z" fill="url(#paint0_linear)"/>
</g>
</g>
<defs>
<filter id="filter0_d" x="2.21216" y="2.3335" width="15.2265" height="13.0125" filterUnits="userSpaceOnUse" color-interpolation-filters="sRGB">
<feFlood flood-opacity="0" result="BackgroundImageFix"/>
<feColorMatrix in="SourceAlpha" type="matrix" values="0 0 0 0 0 0 0 0 0 0 0 0 0 0 0 0 0 0 127 0"/>
<feOffset dy="1.34615"/>
<feColorMatrix type="matrix" values="0 0 0 0 0 0 0 0 0 0 0 0 0 0 0 0 0 0 0.06 0"/>
<feBlend mode="normal" in2="BackgroundImageFix" result="effect1_dropShadow"/>
<feBlend mode="normal" in="SourceGraphic" in2="effect1_dropShadow" result="shape"/>
</filter>
<linearGradient id="paint0_linear" x1="2.21216" y1="2.3335" x2="2.21216" y2="13.9999" gradientUnits="userSpaceOnUse">
<stop stop-color="white"/>
<stop offset="1" stop-color="#F0F0F0"/>
</linearGradient>
</defs>
</svg>
