<svg width="46" height="35" viewBox="0 0 46 35" fill="none" xmlns="http://www.w3.org/2000/svg">
<rect x="0.0380859" width="45.678" height="35" rx="2.64865" fill="white"/>
<mask id="mask0" mask-type="alpha" maskUnits="userSpaceOnUse" x="0" y="0" width="46" height="35">
<rect x="0.0380859" width="45.678" height="35" rx="2.64865" fill="white"/>
</mask>
<g mask="url(#mask0)">
<rect x="0.0380859" width="45.678" height="35" fill="#F1361D"/>
<path fill-rule="evenodd" clip-rule="evenodd" d="M16.4763 10.4254L18.056 10.7146L19.2408 11.8726L19.5099 10.1775L20.5887 8.9064L19.0091 8.6172L17.8242 7.45923L17.5551 9.15424L16.4763 10.4254ZM20.7046 16.3526L22.0737 15.4587L23.6759 15.4985L22.8427 14.0299L22.8797 12.3111L21.5107 13.2049L19.9084 13.1652L20.7417 14.6338L20.7046 16.3526ZM18.8502 25.9477L17.511 26.8924L17.4924 25.1732L16.6121 23.7367L18.2145 23.7162L19.5537 22.7714L19.5724 24.4907L20.4526 25.9272L18.8502 25.9477ZM20.012 21.5031L21.6049 21.3137L23.0414 22.0761L22.8648 20.3674L23.5755 18.8264L21.9826 19.0158L20.5462 18.2534L20.7227 19.9622L20.012 21.5031Z" fill="#FFDC42"/>
<path fill-rule="evenodd" clip-rule="evenodd" d="M10.9131 19.3965L7.07757 22.3296L8.49276 17.5101L4.70707 14.5034L9.41726 14.4579L10.9131 9.6665L12.409 14.4579L17.1192 14.5034L13.3335 17.5101L14.7487 22.3296L10.9131 19.3965Z" fill="#FFDC42"/>
</g>
</svg>
